# xmcd
#
# Track frame offsets:
#       150
#       11462
#       22747
#       33852
#       44552
#       53260
#       64372
#       74725
#       86027
#       99142
#       110462
#       121210
#       132850
#       144535
#       156462
#       165990
#       175812
#       185185
#       197877
#       208534
#       221567
#       234280
#       244757
#       255792
#
# Disc length: 3561 seconds
#
# Revision: 0
# Processed by: cddbd v1.4PL0 Copyright (c) Steve Scherf et al.
# Submitted via: WhereIsIt 3.26
#
DISCID=460de718
DTITLE=Patsy Cline - The Four Star Recordings Volume 2
DYEAR=1900
DGENRE=
TTITLE0=that wonderful someone
TTITLE1=hungry for love
TTITLE2=I can't forget
TTITLE3=I don't wanta
TTITLE4=ain't no wheels on this ship
TTITLE5=stop the world (and let me off)
TTITLE6=walking dream
TTITLE7=cry not for me
TTITLE8=if I could see the world (through the eyes of a child)
TTITLE9=just out of reach (of my two open arms)
TTITLE10=I can see an angel
TTITLE11=let the teardrops fall
TTITLE12=never no more
TTITLE13=If I could only stay asleep
TTITLE14=I'm moving along
TTITLE15=I'm blue again
TTITLE16=love love love me honey do
TTITLE17=yes I understand
TTITLE18=gotta lot of rhythm in my soul
TTITLE19=life's railway to heaven
TTITLE20=just a closer walk with thee
TTITLE21=lovesick bues
TTITLE22=there she goes
TTITLE23=crazy dreams
EXTD=
EXTT0=
EXTT1=
EXTT2=
EXTT3=
EXTT4=
EXTT5=
EXTT6=
EXTT7=
EXTT8=
EXTT9=
EXTT10=
EXTT11=
EXTT12=
EXTT13=
EXTT14=
EXTT15=
EXTT16=
EXTT17=
EXTT18=
EXTT19=
EXTT20=
EXTT21=
EXTT22=
EXTT23=
PLAYORDER=
